<svg width="638" height="394" viewBox="0 0 638 394" fill="none" xmlns="http://www.w3.org/2000/svg">
<path d="M571.76 119.32C571.76 119.132 571.835 118.951 571.968 118.818C572.101 118.685 572.282 118.61 572.47 118.61C572.658 118.61 572.839 118.685 572.972 118.818C573.105 118.951 573.18 119.132 573.18 119.32V122.51C573.18 122.698 573.105 122.879 572.972 123.012C572.839 123.145 572.658 123.22 572.47 123.22C572.282 123.22 572.101 123.145 571.968 123.012C571.835 122.879 571.76 122.698 571.76 122.51V119.32ZM566.93 121.91C566.816 121.774 566.758 121.6 566.766 121.423C566.774 121.246 566.848 121.079 566.973 120.953C567.099 120.828 567.266 120.754 567.443 120.746C567.62 120.738 567.794 120.797 567.93 120.91L570.19 123.17C570.32 123.304 570.392 123.483 570.392 123.67C570.392 123.857 570.32 124.036 570.19 124.17C570.055 124.297 569.876 124.368 569.69 124.368C569.504 124.368 569.325 124.297 569.19 124.17L566.93 121.91ZM565.34 127.17C565.247 127.17 565.154 127.152 565.068 127.116C564.982 127.08 564.904 127.028 564.838 126.962C564.772 126.896 564.72 126.818 564.684 126.732C564.648 126.646 564.63 126.553 564.63 126.46C564.63 126.367 564.648 126.274 564.684 126.188C564.72 126.102 564.772 126.024 564.838 125.958C564.904 125.892 564.982 125.84 565.068 125.804C565.154 125.768 565.247 125.75 565.34 125.75H568.53C568.718 125.75 568.899 125.825 569.032 125.958C569.165 126.091 569.24 126.272 569.24 126.46C569.24 126.648 569.165 126.829 569.032 126.962C568.899 127.095 568.718 127.17 568.53 127.17H565.34ZM567.93 132C567.865 132.067 567.787 132.119 567.701 132.155C567.615 132.192 567.523 132.21 567.43 132.21C567.337 132.21 567.245 132.192 567.159 132.155C567.073 132.119 566.995 132.067 566.93 132C566.862 131.936 566.808 131.858 566.771 131.772C566.734 131.686 566.716 131.594 566.716 131.5C566.716 131.406 566.734 131.314 566.771 131.228C566.808 131.142 566.862 131.064 566.93 131L569.18 128.74C569.244 128.672 569.322 128.618 569.408 128.581C569.494 128.545 569.586 128.525 569.68 128.525C569.774 128.525 569.866 128.545 569.952 128.581C570.038 128.618 570.116 128.672 570.18 128.74C570.31 128.874 570.382 129.053 570.382 129.24C570.382 129.427 570.31 129.606 570.18 129.74L567.93 132ZM573.18 133.59C573.18 133.778 573.105 133.959 572.972 134.092C572.839 134.225 572.658 134.3 572.47 134.3C572.282 134.3 572.101 134.225 571.968 134.092C571.835 133.959 571.76 133.778 571.76 133.59V130.4C571.76 130.212 571.835 130.031 571.968 129.898C572.101 129.765 572.282 129.69 572.47 129.69C572.658 129.69 572.839 129.765 572.972 129.898C573.105 130.031 573.18 130.212 573.18 130.4V133.59ZM578.02 131.01C578.134 131.146 578.192 131.32 578.184 131.497C578.176 131.674 578.102 131.841 577.977 131.967C577.851 132.092 577.684 132.166 577.507 132.174C577.33 132.182 577.156 132.123 577.02 132.01L574.76 129.78C574.693 129.715 574.641 129.637 574.605 129.551C574.568 129.465 574.55 129.373 574.55 129.28C574.55 129.187 574.568 129.095 574.605 129.009C574.641 128.923 574.693 128.845 574.76 128.78C574.824 128.711 574.901 128.656 574.987 128.618C575.073 128.58 575.166 128.561 575.26 128.561C575.354 128.561 575.447 128.58 575.533 128.618C575.619 128.656 575.696 128.711 575.76 128.78L578.02 131.01ZM579.61 125.75C579.703 125.75 579.796 125.768 579.882 125.804C579.968 125.84 580.046 125.892 580.112 125.958C580.178 126.024 580.23 126.102 580.266 126.188C580.302 126.274 580.32 126.367 580.32 126.46C580.32 126.553 580.302 126.646 580.266 126.732C580.23 126.818 580.178 126.896 580.112 126.962C580.046 127.028 579.968 127.08 579.882 127.116C579.796 127.152 579.703 127.17 579.61 127.17H576.41C576.222 127.17 576.041 127.095 575.908 126.962C575.775 126.829 575.7 126.648 575.7 126.46C575.7 126.272 575.775 126.091 575.908 125.958C576.041 125.825 576.222 125.75 576.41 125.75H579.61ZM577.01 120.91C577.146 120.797 577.32 120.738 577.497 120.746C577.674 120.754 577.841 120.828 577.967 120.953C578.092 121.079 578.166 121.246 578.174 121.423C578.182 121.6 578.124 121.774 578.01 121.91L575.75 124.17C575.616 124.3 575.437 124.372 575.25 124.372C575.063 124.372 574.884 124.3 574.75 124.17C574.683 124.105 574.631 124.027 574.595 123.941C574.558 123.855 574.54 123.763 574.54 123.67C574.54 123.577 574.558 123.485 574.595 123.399C574.631 123.313 574.683 123.235 574.75 123.17L577.01 120.91Z" fill="#8B77E6"/>
<path fill-rule="evenodd" clip-rule="evenodd" d="M114.38 0C93.4051 0.0606939 73.3067 8.42055 58.476 23.2531C43.6454 38.0856 35.288 58.185 35.23 79.16C35.2933 100.131 43.653 120.226 58.483 135.054C73.3131 149.882 93.4085 158.239 114.38 158.3C118.589 158.313 122.622 159.992 125.598 162.969C128.573 165.947 130.249 169.981 130.26 174.19C130.249 178.398 128.573 182.431 125.597 185.407C122.621 188.383 118.588 190.059 114.38 190.07H73C62.7663 190.099 52.96 194.177 45.7236 201.414C38.4872 208.65 34.409 218.456 34.38 228.69C34.4117 238.922 38.491 248.726 45.7271 255.96C52.9632 263.194 62.768 267.271 73 267.3C81.8475 267.326 90.325 270.853 96.5812 277.109C102.837 283.365 106.364 291.843 106.39 300.69C106.435 316.837 112.868 332.31 124.285 343.728C135.702 355.146 151.173 361.583 167.32 361.63H525C545.974 361.567 566.071 353.206 580.901 338.374C595.731 323.542 604.089 303.444 604.15 282.47C604.087 261.498 595.727 241.402 580.898 226.572C566.068 211.743 545.972 203.383 525 203.32H469.15C464.942 203.307 460.909 201.63 457.932 198.655C454.955 195.68 453.276 191.648 453.26 187.44C453.273 183.23 454.952 179.196 457.929 176.219C460.906 173.242 464.94 171.563 469.15 171.55H483.33C493.561 171.521 503.365 167.444 510.599 160.209C517.834 152.975 521.911 143.171 521.94 132.94C521.911 122.719 517.842 112.925 510.621 105.692C503.399 98.459 493.611 94.3748 483.39 94.33H479.3C470.452 94.3036 461.973 90.7776 455.715 84.5218C449.458 78.2659 445.929 69.7884 445.9 60.94C445.855 44.7984 439.426 29.3301 428.016 17.9125C416.606 6.49491 401.142 0.0554074 385 0H114.38Z" fill="#6DC2ED"/>
<path fill-rule="evenodd" clip-rule="evenodd" d="M572.47 172.56C580.038 172.562 587.436 170.32 593.729 166.117C600.022 161.914 604.927 155.939 607.825 148.948C610.722 141.957 611.481 134.264 610.006 126.842C608.531 119.42 604.888 112.601 599.537 107.25C594.187 101.898 587.37 98.253 579.948 96.7759C572.526 95.2988 564.833 96.0559 557.841 98.9514C550.849 101.847 544.873 106.751 540.669 113.043C536.464 119.335 534.22 126.732 534.22 134.3C534.219 139.324 535.207 144.299 537.129 148.941C539.05 153.583 541.868 157.8 545.42 161.353C548.972 164.906 553.189 167.725 557.83 169.647C562.471 171.57 567.446 172.56 572.47 172.56Z" fill="#68B9E8"/>
<path d="M165.18 43.14H128.12V54.37H165.18V43.14Z" fill="#41B1EA"/>
<path d="M110.15 56.63H73.08V67.86H110.15V56.63Z" fill="#41B1EA"/>
<path d="M148.97 56.63H111.91V67.86H148.97V56.63Z" fill="#41B1EA"/>
<path d="M126.35 70.1H89.29V81.33H126.35V70.1Z" fill="#41B1EA"/>
<path d="M110.15 83.58H73.08V94.81H110.15V83.58Z" fill="#41B1EA"/>
<path d="M148.97 83.58H111.91V94.81H148.97V83.58Z" fill="#41B1EA"/>
<path d="M189.22 289.64H152.15V300.86H189.22V289.64Z" fill="#BBBBF6"/>
<path d="M228.06 289.64H190.99V300.86H228.06V289.64Z" fill="#BBBBF6"/>
<path d="M173.01 303.12H135.95V314.35H173.01V303.12Z" fill="#BBBBF6"/>
<path d="M211.84 303.12H174.78V314.35H211.84V303.12Z" fill="#41B1EA"/>
<path d="M228.06 316.6H190.99V327.83H228.06V316.6Z" fill="#41B1EA"/>
<path d="M173.01 330.07H135.95V341.3H173.01V330.07Z" fill="#BBBBF6"/>
<path d="M211.84 330.07H174.78V341.3H211.84V330.07Z" fill="#41B1EA"/>
<path fill-rule="evenodd" clip-rule="evenodd" d="M215.13 34.1H378.29C380.294 34.1079 382.214 34.9083 383.631 36.3265C385.047 37.7448 385.845 39.6657 385.85 41.67V274.38H391.65C392.997 274.385 394.288 274.924 395.24 275.877C396.192 276.831 396.727 278.123 396.73 279.47V300.25C396.725 301.595 396.187 302.883 395.236 303.833C394.284 304.783 392.995 305.317 391.65 305.32H201.76C200.416 305.317 199.128 304.782 198.178 303.832C197.228 302.882 196.693 301.594 196.69 300.25V279.47C196.693 278.124 197.227 276.834 198.177 275.881C199.126 274.927 200.414 274.388 201.76 274.38H207.57V41.67C207.575 39.6657 208.373 37.7448 209.789 36.3265C211.206 34.9083 213.126 34.1079 215.13 34.1Z" fill="#3B92BE"/>
<path fill-rule="evenodd" clip-rule="evenodd" d="M211 32.35H374.13C376.133 32.3553 378.053 33.1535 379.47 34.5701C380.887 35.9867 381.685 37.9066 381.69 39.91V276.23C381.685 278.233 380.887 280.153 379.47 281.57C378.053 282.987 376.133 283.785 374.13 283.79H211C208.995 283.787 207.072 282.99 205.654 281.573C204.235 280.157 203.435 278.235 203.43 276.23V39.91C203.435 37.9049 204.235 35.9835 205.654 34.5666C207.072 33.1497 208.995 32.3526 211 32.35Z" fill="#F4F5F9"/>
<path d="M367.87 163.84H217.24V262.45H367.87V163.84Z" fill="#2A6F97"/>
<path d="M367.87 46.17H217.24V166.4H367.87V46.17Z" fill="#E2E2E2"/>
<path fill-rule="evenodd" clip-rule="evenodd" d="M232.09 61.02V98.86H285.09V61.02H232.09ZM232.09 113.71V151.55H285.09V113.71H232.09ZM300 151.55H353V113.71H300V151.55ZM353 98.86V61.02H300V98.86H353Z" fill="#F7CC62"/>
<path fill-rule="evenodd" clip-rule="evenodd" d="M347 89.54L337.69 98.86H313L344.53 67.32H347V89.54ZM323.75 67.32H334.43L302.9 98.86H300V91.09L323.75 67.32ZM285.12 145.24H266.64L285.12 126.78V145.24ZM256.51 145.24H245.83L277.36 113.71H285.12V116.63L256.51 145.24ZM322.83 113.71L300 136.56V113.71H322.83Z" fill="#ECBA3D"/>
<path fill-rule="evenodd" clip-rule="evenodd" d="M197.61 272.63H387.5C388.845 272.635 390.133 273.173 391.083 274.124C392.033 275.076 392.567 276.365 392.57 277.71V298.49C392.567 299.835 392.033 301.124 391.083 302.076C390.133 303.027 388.845 303.565 387.5 303.57H197.61C196.263 303.567 194.973 303.031 194.021 302.079C193.069 301.127 192.533 299.836 192.53 298.49V277.71C192.533 276.364 193.069 275.073 194.021 274.121C194.973 273.169 196.263 272.633 197.61 272.63Z" fill="#64C5F5"/>
<path fill-rule="evenodd" clip-rule="evenodd" d="M297.74 176.3L295.74 176.51H294.53L293.32 176.45L291.38 176.09L280.28 164.74L254.78 175.97C255.56 216.06 251.37 234.86 246.45 262.5H324C324.11 250.59 328.91 232.96 329.91 223.4L334.27 179.1L309.73 165.89L297.74 176.3Z" fill="#61A5C2"/>
<path fill-rule="evenodd" clip-rule="evenodd" d="M302.43 262.46H316.43C318.846 260.318 321.484 258.44 324.3 256.86C325.41 245.53 329.02 231.52 329.88 223.36L330 222.1C329.687 219.053 329.353 215.753 329 212.2C327.59 199.05 330.65 190.29 333.68 185.08L334.27 179.08L309.73 165.87L305.87 169.26L304.54 175.59C304.54 175.59 317.8 185.83 319.41 191.43C321.02 197.03 315.41 235.56 311.41 252.19C310.41 256.26 307.04 259.66 302.47 262.48L302.43 262.46Z" fill="#61A5C2"/>
<path fill-rule="evenodd" clip-rule="evenodd" d="M254.84 177.55C255.24 202.17 253.74 218.7 251.35 234.39C251.35 234.39 264.35 185.7 262.93 184.39C261.8 183.39 260.39 182.19 254.84 177.57V177.55Z" fill="#1B4A65"/>
<path fill-rule="evenodd" clip-rule="evenodd" d="M308.58 163.01C304.432 160.905 299.879 159.72 295.232 159.535C290.584 159.35 285.952 160.171 281.65 161.94L283.05 166.2L306.85 167.14L308.58 163.01Z" fill="#B1AEC1"/>
<path fill-rule="evenodd" clip-rule="evenodd" d="M297.74 176.3L295.74 176.51L293.32 176.41L291.38 176.05L284 168.43L282.83 168.74L280.22 171.91C280.22 171.91 285.35 185.21 285.66 185.66C285.97 186.11 286.55 186.37 287.45 185.37C288.35 184.37 291.13 181.1 291.13 181.1C291.13 181.1 291.94 180.32 292.27 181.26C292.6 182.2 296.68 179.82 296.68 179.82L296.93 180.72C296.93 180.72 297.56 180 298.13 180.98C298.7 181.96 301.48 186.19 301.68 186.38C301.88 186.57 302.75 187.22 303.43 185.96C304.11 184.7 311.35 169.96 312.62 167.41L309.73 165.85L297.74 176.3Z" fill="#1B4A65"/>
<path fill-rule="evenodd" clip-rule="evenodd" d="M297.74 176.3L295.74 176.51L293.32 176.41L291.38 176.05L290.64 175.3L288.9 178.04C288.9 178.04 292.49 179.37 292.36 182.55L285.36 262.46H289.23L296.23 182.71C296.51 179.53 300.04 178.48 300.04 178.48L298.52 175.61L297.74 176.3Z" fill="#1B4A65"/>
<path fill-rule="evenodd" clip-rule="evenodd" d="M295.87 143.37C298.576 143.487 301.126 144.669 302.963 146.659C304.801 148.648 305.778 151.283 305.68 153.99L305.15 167.51C305.033 170.216 303.851 172.766 301.861 174.603C299.872 176.441 297.237 177.418 294.53 177.32C291.823 177.203 289.273 176.021 287.433 174.032C285.594 172.043 284.615 169.408 284.71 166.7L285.24 153.19C285.357 150.482 286.54 147.929 288.532 146.09C290.523 144.25 293.161 143.272 295.87 143.37Z" fill="#E76D60"/>
<path fill-rule="evenodd" clip-rule="evenodd" d="M292.23 175.14L293.41 175C293.56 175.196 293.644 175.434 293.65 175.68C293.65 176.1 293.65 177.34 293.65 177.34C293.21 177.48 290.9 177.86 290.99 177.53C290.99 177.45 292.24 175.14 292.24 175.14H292.23Z" fill="#31275B"/>
<path fill-rule="evenodd" clip-rule="evenodd" d="M297 175.33L295.84 175.09C295.677 175.275 295.576 175.505 295.55 175.75C295.5 176.17 295.42 177.41 295.42 177.41C295.84 177.76 298.13 178.14 298.07 177.81C298.07 177.74 297 175.33 297 175.33Z" fill="#31275B"/>
<path fill-rule="evenodd" clip-rule="evenodd" d="M308.58 163.01C308.71 163.13 310.06 165.72 310.77 167.01C310.971 167.428 311.082 167.884 311.094 168.347C311.106 168.811 311.019 169.272 310.84 169.7C310.28 171.38 303.16 184.97 303.16 184.97C303.16 184.97 302.66 185.69 301.94 184.97C301.22 184.25 295.83 175.15 295.83 175.15L307.14 164.15C307.67 163.52 308.46 162.97 308.58 163.09V163.01Z" fill="white"/>
<path fill-rule="evenodd" clip-rule="evenodd" d="M281.65 161.94C281.55 161.99 279.96 164.54 279.16 165.73C278.923 166.132 278.775 166.58 278.725 167.044C278.675 167.508 278.724 167.977 278.87 168.42C279.31 170.13 285.33 184.25 285.33 184.25C285.33 184.25 285.77 184.99 286.55 184.3C287.33 183.61 293.41 175 293.41 175L283 163.11C282.31 162.23 281.73 161.9 281.65 161.94Z" fill="white"/>
<path fill-rule="evenodd" clip-rule="evenodd" d="M275.66 130.62H275.19C273.778 130.713 272.439 131.283 271.394 132.236C270.349 133.19 269.658 134.471 269.437 135.868C269.215 137.266 269.474 138.697 270.173 139.928C270.872 141.158 271.968 142.115 273.282 142.64C274.596 143.166 276.049 143.229 277.404 142.82C278.758 142.411 279.934 141.553 280.737 140.388C281.54 139.223 281.923 137.82 281.824 136.408C281.725 134.997 281.148 133.661 280.19 132.62C280.08 134.47 279.47 136.62 277.11 136.56L277.69 133.01C277.726 132.72 277.702 132.425 277.619 132.145C277.537 131.865 277.397 131.604 277.21 131.38C277.022 131.156 276.79 130.973 276.529 130.842C276.267 130.711 275.982 130.636 275.69 130.62H275.66Z" fill="#E76D60"/>
<path fill-rule="evenodd" clip-rule="evenodd" d="M320.19 137.08L320.63 137.23C321.96 137.718 323.084 138.644 323.818 139.855C324.552 141.067 324.852 142.492 324.668 143.897C324.485 145.302 323.829 146.602 322.808 147.584C321.787 148.567 320.463 149.172 319.052 149.302C317.642 149.432 316.229 149.078 315.046 148.298C313.864 147.518 312.981 146.359 312.545 145.011C312.108 143.664 312.143 142.208 312.644 140.883C313.145 139.557 314.081 138.442 315.3 137.72C314.88 139.52 314.83 141.82 317.13 142.38L317.58 138.81C317.63 138.522 317.738 138.247 317.897 138.002C318.057 137.757 318.264 137.547 318.508 137.385C318.751 137.224 319.025 137.113 319.312 137.06C319.6 137.008 319.895 137.015 320.18 137.08H320.19Z" fill="#E76D60"/>
<path fill-rule="evenodd" clip-rule="evenodd" d="M302.4 103.03C296.8 102.235 291.113 103.687 286.58 107.071C282.048 110.455 279.039 115.495 278.21 121.09L275.42 140.3C274.624 145.901 276.077 151.59 279.461 156.124C282.844 160.658 287.884 163.669 293.48 164.5C299.08 165.295 304.767 163.843 309.3 160.459C313.832 157.075 316.841 152.035 317.67 146.44L320.46 127.23C321.256 121.629 319.803 115.94 316.419 111.406C313.036 106.872 307.996 103.861 302.4 103.03Z" fill="#FCB187"/>
<path fill-rule="evenodd" clip-rule="evenodd" d="M290.5 163.84C291.482 164.134 292.485 164.354 293.5 164.5C299.1 165.295 304.787 163.843 309.32 160.459C313.852 157.075 316.861 152.035 317.69 146.44L320.48 127.23C320.971 123.869 320.646 120.439 319.53 117.23C310.99 114.69 303.72 112.65 303.72 112.65C303.72 112.65 276.81 112.65 279.72 120.06L280.49 121.29C281.399 120.612 282.455 120.159 283.572 119.966C284.689 119.773 285.836 119.846 286.92 120.18C291.04 121.18 304.71 124.74 309.23 126.41C313.75 128.08 314.95 131.41 314.23 136.01C313.51 140.61 314.02 142.37 315.15 143.12C315.15 143.12 313.41 163.85 290.52 163.85L290.5 163.84Z" fill="#F49677"/>
<path fill-rule="evenodd" clip-rule="evenodd" d="M290.27 148.32C290.139 149.033 290.149 149.765 290.301 150.474C290.452 151.183 290.742 151.855 291.153 152.452C291.565 153.05 292.09 153.56 292.698 153.954C293.307 154.348 293.987 154.619 294.7 154.75C295.413 154.881 296.145 154.871 296.854 154.719C297.563 154.568 298.235 154.278 298.832 153.867C299.43 153.455 299.94 152.93 300.334 152.322C300.728 151.713 300.999 151.033 301.13 150.32C301.164 150.074 301.105 149.823 300.965 149.618C300.824 149.413 300.612 149.267 300.37 149.21L291.37 147.54C291.124 147.506 290.873 147.565 290.668 147.705C290.463 147.846 290.317 148.058 290.26 148.3L290.27 148.32Z" fill="white"/>
<path fill-rule="evenodd" clip-rule="evenodd" d="M291.5 152.93C292.246 153.802 293.244 154.419 294.357 154.697C295.47 154.975 296.642 154.899 297.71 154.48C297.558 153.83 297.218 153.239 296.732 152.78C296.247 152.322 295.638 152.016 294.98 151.9C294.364 151.734 293.714 151.739 293.101 151.915C292.487 152.091 291.934 152.432 291.5 152.9V152.93Z" fill="white"/>
<path fill-rule="evenodd" clip-rule="evenodd" d="M300.48 149.26L292 147.7C291.838 148.084 291.803 148.511 291.902 148.916C292.001 149.321 292.229 149.684 292.55 149.95C293.26 150.33 299.39 151.31 299.91 150.95C300.231 150.457 300.414 149.887 300.44 149.3L300.48 149.26Z" fill="white"/>
<path fill-rule="evenodd" clip-rule="evenodd" d="M308.37 146.15C307.822 146.059 307.258 146.132 306.752 146.36C306.245 146.589 305.818 146.963 305.523 147.435C305.229 147.906 305.081 148.455 305.099 149.01C305.117 149.566 305.299 150.104 305.622 150.556C305.945 151.009 306.396 151.355 306.916 151.551C307.436 151.747 308.003 151.785 308.544 151.659C309.086 151.533 309.578 151.249 309.958 150.843C310.338 150.438 310.589 149.929 310.68 149.38C310.799 148.646 310.623 147.894 310.19 147.289C309.757 146.685 309.103 146.275 308.37 146.15Z" fill="#E76D60"/>
<path fill-rule="evenodd" clip-rule="evenodd" d="M284.54 142.23C283.992 142.139 283.428 142.212 282.922 142.44C282.415 142.669 281.987 143.043 281.693 143.515C281.399 143.986 281.251 144.535 281.269 145.09C281.287 145.646 281.469 146.184 281.792 146.636C282.115 147.089 282.566 147.435 283.086 147.631C283.606 147.827 284.173 147.865 284.714 147.739C285.256 147.613 285.748 147.329 286.128 146.923C286.508 146.518 286.759 146.008 286.85 145.46C286.969 144.726 286.793 143.974 286.36 143.369C285.927 142.765 285.273 142.355 284.54 142.23Z" fill="#E76D60"/>
<path fill-rule="evenodd" clip-rule="evenodd" d="M288.36 139.78C288.431 139.259 288.295 138.731 287.98 138.31C287.739 138.01 287.417 137.786 287.052 137.664C286.686 137.543 286.294 137.529 285.921 137.626C285.549 137.722 285.212 137.923 284.951 138.206C284.69 138.489 284.516 138.841 284.45 139.22C284.418 139.417 284.31 139.593 284.149 139.711C283.988 139.829 283.787 139.879 283.59 139.85C283.391 139.82 283.211 139.714 283.089 139.553C282.968 139.392 282.914 139.19 282.94 138.99C283.079 138.074 283.571 137.249 284.31 136.69C284.865 136.278 285.529 136.04 286.22 136.005C286.91 135.97 287.595 136.141 288.189 136.495C288.782 136.849 289.258 137.37 289.555 137.994C289.853 138.618 289.959 139.316 289.86 140C289.852 140.104 289.823 140.206 289.775 140.298C289.726 140.39 289.659 140.472 289.577 140.537C289.496 140.602 289.402 140.65 289.301 140.678C289.2 140.705 289.095 140.711 288.992 140.696C288.888 140.681 288.789 140.645 288.701 140.59C288.612 140.534 288.536 140.462 288.476 140.376C288.417 140.29 288.376 140.192 288.356 140.09C288.336 139.987 288.337 139.882 288.36 139.78ZM310.12 142.94C310.161 142.683 310.149 142.42 310.085 142.167C310.022 141.915 309.908 141.677 309.75 141.47C309.436 141.055 308.974 140.779 308.46 140.7C307.94 140.626 307.412 140.759 306.99 141.07C306.567 141.387 306.287 141.857 306.21 142.38C306.18 142.579 306.073 142.758 305.912 142.877C305.751 142.997 305.549 143.049 305.35 143.02C305.151 142.988 304.972 142.879 304.852 142.716C304.732 142.553 304.681 142.35 304.71 142.15C304.776 141.696 304.93 141.26 305.164 140.866C305.399 140.472 305.708 140.128 306.076 139.853C306.443 139.579 306.86 139.38 307.305 139.267C307.749 139.154 308.211 139.129 308.665 139.195C309.119 139.261 309.555 139.415 309.949 139.649C310.343 139.884 310.687 140.193 310.962 140.561C311.236 140.928 311.435 141.345 311.548 141.79C311.661 142.234 311.686 142.696 311.62 143.15C311.607 143.248 311.574 143.342 311.524 143.428C311.474 143.513 311.407 143.587 311.328 143.647C311.249 143.706 311.159 143.75 311.063 143.774C310.968 143.799 310.868 143.804 310.77 143.79C310.671 143.776 310.575 143.743 310.489 143.693C310.402 143.642 310.327 143.575 310.266 143.495C310.206 143.415 310.162 143.324 310.137 143.227C310.112 143.13 310.106 143.029 310.12 142.93V142.94ZM311.78 136.13C311.049 135.592 310.198 135.24 309.301 135.106C308.403 134.972 307.486 135.059 306.63 135.36C306.443 135.437 306.233 135.437 306.046 135.36C305.859 135.283 305.709 135.136 305.63 134.95C305.553 134.763 305.553 134.553 305.63 134.366C305.707 134.179 305.854 134.029 306.04 133.95C307.132 133.552 308.305 133.429 309.456 133.591C310.607 133.753 311.7 134.196 312.64 134.88C312.721 134.936 312.791 135.008 312.845 135.092C312.898 135.175 312.935 135.268 312.952 135.366C312.97 135.463 312.968 135.563 312.947 135.66C312.926 135.757 312.886 135.849 312.83 135.93C312.774 136.011 312.702 136.081 312.618 136.135C312.535 136.188 312.442 136.225 312.344 136.242C312.247 136.26 312.147 136.258 312.05 136.237C311.953 136.216 311.861 136.176 311.78 136.12V136.13ZM284.78 132.22C284.683 132.255 284.58 132.27 284.477 132.264C284.374 132.259 284.273 132.233 284.18 132.189C284.087 132.144 284.004 132.081 283.935 132.004C283.866 131.927 283.814 131.838 283.78 131.74C283.744 131.642 283.728 131.538 283.734 131.434C283.739 131.33 283.765 131.229 283.811 131.135C283.857 131.042 283.921 130.959 284 130.891C284.079 130.823 284.171 130.771 284.27 130.74C285.366 130.354 286.541 130.243 287.69 130.417C288.839 130.592 289.928 131.046 290.86 131.74C291.016 131.873 291.114 132.062 291.131 132.266C291.148 132.471 291.083 132.674 290.95 132.83C290.817 132.986 290.628 133.084 290.424 133.101C290.219 133.118 290.016 133.053 289.86 132.92C289.127 132.385 288.274 132.04 287.375 131.914C286.477 131.789 285.561 131.887 284.71 132.2L284.78 132.22Z" fill="#31275B"/>
<path fill-rule="evenodd" clip-rule="evenodd" d="M275.94 136.78C275.94 136.78 279.28 135.96 280.07 130.55C280.86 125.14 280.65 126.48 281.07 123.66C281.49 120.84 284.16 116.19 289.87 117.02L300.17 118.52L310.47 120.01C316.18 120.84 317.47 126.06 317.01 128.88C316.55 131.7 316.79 130.37 316.01 135.78C315.23 141.19 318.19 142.92 318.19 142.92C318.82 138.63 320.37 137.14 320.37 137.14C320.37 137.14 321.2 131.4 321.93 126.39C322.66 121.38 322.23 114.45 316.32 108.86C312.51 105.293 307.698 102.98 302.533 102.231C297.367 101.481 292.097 102.333 287.43 104.67C280.18 108.33 277.79 114.87 277.06 119.88C276.33 124.89 275.5 130.62 275.5 130.62C275.5 130.62 276.56 132.5 275.95 136.78H275.94Z" fill="#31275B"/>
<path fill-rule="evenodd" clip-rule="evenodd" d="M289.86 116.99C292.967 120.08 296.941 122.15 301.253 122.925C305.565 123.7 310.012 123.144 314 121.33C314 121.33 320.19 117.68 322.12 120.47C322.12 120.47 326.43 109.18 316.72 106.26C316.72 106.26 318.96 105.14 318.83 103.69C318.7 102.24 315.49 97.89 305.48 100.07C305.48 100.07 305.82 96.47 302.61 95.43C299.4 94.39 288.7 98.02 286.14 105.37C286.14 105.37 284.07 110.77 289.91 116.99H289.86Z" fill="#31275B"/>
<path fill-rule="evenodd" clip-rule="evenodd" d="M322.92 113.37C322.852 112.841 322.738 112.319 322.58 111.81C319.78 113.27 313.78 115.28 304.45 112.81C296.21 110.67 295.54 102.38 296.26 96.26C293.035 97.4064 290.171 99.3869 287.96 102C287.96 105 289.51 109.35 296.3 113.94C305.9 120.42 318.06 115.71 322.92 113.33V113.37Z" fill="#4F4D6E"/>
<path fill-rule="evenodd" clip-rule="evenodd" d="M198.6 87.98V89.62C199.256 89.9568 199.758 90.5334 200 91.23C200.344 91.9787 200.634 92.7506 200.87 93.54L209.44 90.43V89.76L208.76 87.76C208.707 87.6669 208.68 87.5619 208.68 87.455C208.68 87.3481 208.707 87.243 208.76 87.15L204.41 85.23L198.6 87.98Z" fill="#FCB187"/>
<path fill-rule="evenodd" clip-rule="evenodd" d="M278.7 165.41C278.7 165.41 237.7 143.98 231.2 136.7C224.7 129.42 221.66 119.23 211.74 90.11C211.74 90.11 211.38 88.75 209.27 88.89C207.16 89.03 201.27 91.12 200.45 92.12C200.018 92.5573 199.7 93.0947 199.526 93.6844C199.351 94.2741 199.325 94.8978 199.45 95.5C199.74 96.87 211.45 142.23 214.75 149.01C218.05 155.79 248.08 183.7 254.33 190.21C260.58 196.72 278.67 165.41 278.67 165.41H278.7Z" fill="#61A5C2"/>
<path fill-rule="evenodd" clip-rule="evenodd" d="M207.55 89.2C204.93 89.85 201.09 91.33 200.45 92.12C200.018 92.5573 199.7 93.0947 199.526 93.6844C199.351 94.2741 199.325 94.8978 199.45 95.5C199.74 96.87 211.45 142.23 214.75 149.01C218.05 155.79 248.08 183.7 254.33 190.21C256.28 192.21 259.38 190.58 262.74 187.34C263.02 185.63 263.09 184.55 262.9 184.34C261.45 183.01 259.54 181.46 248.99 172.67C238.44 163.88 222.04 148.76 219.33 143.17C216.62 137.58 208.21 107.99 205.49 99.17C202.87 90.63 207.18 89.31 207.49 89.17L207.55 89.2Z" fill="#2A6F97"/>
<path fill-rule="evenodd" clip-rule="evenodd" d="M211.08 78.21C211.513 75.893 212.583 73.7426 214.17 72C215.12 71 210.55 68.21 208.76 73C208.76 73 207.15 74.82 206.22 74.29C205.29 73.76 203.83 59.64 203.67 58.11C203.64 57.8413 203.544 57.5844 203.39 57.3625C203.236 57.1406 203.028 56.9608 202.787 56.8395C202.545 56.7182 202.277 56.6593 202.007 56.6682C201.737 56.677 201.473 56.7532 201.24 56.89C200.77 57.32 201.02 59.56 201.16 62.4C201.3 65.24 201.42 68.46 201.16 68.75C200.9 69.04 200.27 69.03 199.59 67.5C198.91 65.97 195.46 57.38 194.69 56.96C193.92 56.54 192.52 57.32 192.69 58.76C192.86 60.2 196.63 68.76 196.77 69.98C196.91 71.2 195.67 71.18 195.11 70.5C194.55 69.82 189.11 61.15 188.42 60.73C187.73 60.31 186.31 61.15 186.83 62.61C187.35 64.07 192.21 72.61 192.17 73.31C192.13 74.01 191.17 74.58 189.62 73.46C188.07 72.34 185.02 69.66 184.43 69.63C183.84 69.6 183.08 71.41 184.49 72.84C185.9 74.27 189.26 77.95 189.69 78.56C191.96 81.76 193.13 85.3 195.25 87.56C196.053 88.3918 197.039 89.0252 198.13 89.41C199.514 89.8995 200.983 90.1022 202.448 90.006C203.912 89.9097 205.342 89.5164 206.65 88.85C211.07 86.45 210.28 82.6 211.11 78.18L211.08 78.21Z" fill="#FCB187"/>
<path fill-rule="evenodd" clip-rule="evenodd" d="M279.47 270.31L276.75 272.63H254.13C254.13 272.63 255 269.83 256.49 268.96C256.912 268.772 257.368 268.674 257.83 268.67C258.296 268.086 258.896 267.622 259.58 267.32C262.564 266.409 265.599 265.674 268.67 265.12C271.44 264.64 274.11 265.6 275.43 265.6C276.554 265.566 277.676 265.473 278.79 265.32L279.47 270.31Z" fill="#FCB187"/>
<path fill-rule="evenodd" clip-rule="evenodd" d="M334.23 179.06C334.23 179.06 338.4 181.99 340.39 190.87C342.38 199.75 347.39 244.87 348.39 252.67C349.39 260.47 349.04 272.67 331.77 272.67H276.77V264.58C276.727 264.204 276.769 263.822 276.891 263.464C277.013 263.105 277.214 262.778 277.478 262.507C277.742 262.235 278.063 262.025 278.418 261.893C278.773 261.76 279.152 261.708 279.53 261.74C280.93 261.74 322.95 257.18 324.94 256.63C326.93 256.08 327.94 254.95 327.94 252.55C327.94 250.15 321.14 222.41 319.7 212.02C318.26 201.63 324.34 178.76 334.21 179.02L334.23 179.06Z" fill="#61A5C2"/>
<path fill-rule="evenodd" clip-rule="evenodd" d="M348.69 256.52C348.85 263.94 346.38 272.63 331.76 272.63H276.76V266.31C278.11 267.99 280.81 269.92 286.11 269.92H329.45C336.08 269.92 348.45 265.12 348.7 256.52H348.69Z" fill="#1B4A65"/>
<path fill-rule="evenodd" clip-rule="evenodd" d="M319.72 212.02C320.72 219.02 324.15 234.02 326.26 243.69C326.987 246.61 327.555 249.568 327.96 252.55C327.89 254.75 327.07 255.88 325.39 256.48C329.55 255.79 330.96 253.84 331.67 251.21C332.29 248.97 331.74 239.54 329.99 222.1C329.68 219.05 329.34 215.74 328.99 212.2C327.58 199.05 330.64 190.29 333.67 185.08C334.446 183.735 335.332 182.458 336.32 181.26C335.745 180.43 335.051 179.689 334.26 179.06C324.39 178.76 318.32 201.63 319.75 212.06L319.72 212.02Z" fill="#2A6F97"/>
<path fill-rule="evenodd" clip-rule="evenodd" d="M292.72 144.78C292.72 144.78 294.6 142.78 295.2 142.29C295.8 141.8 295.92 142.37 295.85 143.15C295.78 143.93 295.98 145.44 295.56 145.79C295.14 146.14 293.06 145.79 292.62 145.61C292.18 145.43 292.72 144.78 292.72 144.78Z" fill="#FCCCB1"/>
<path d="M154.52 189.02C154.509 188.931 154.517 188.841 154.543 188.756C154.569 188.67 154.613 188.591 154.672 188.524C154.731 188.457 154.804 188.403 154.886 188.367C154.967 188.33 155.056 188.311 155.145 188.311C155.234 188.311 155.323 188.33 155.404 188.367C155.486 188.403 155.559 188.457 155.618 188.524C155.677 188.591 155.721 188.67 155.747 188.756C155.773 188.841 155.781 188.931 155.77 189.02V191.83C155.751 191.982 155.677 192.122 155.562 192.223C155.446 192.325 155.298 192.381 155.145 192.381C154.992 192.381 154.844 192.325 154.728 192.223C154.613 192.122 154.539 191.982 154.52 191.83V189.02ZM150.27 191.3C150.212 191.242 150.166 191.174 150.135 191.098C150.104 191.023 150.088 190.942 150.088 190.86C150.088 190.778 150.104 190.697 150.135 190.622C150.166 190.546 150.212 190.478 150.27 190.42C150.328 190.362 150.396 190.316 150.472 190.285C150.547 190.254 150.628 190.238 150.71 190.238C150.792 190.238 150.873 190.254 150.948 190.285C151.024 190.316 151.092 190.362 151.15 190.42L153.15 192.42C153.247 192.541 153.296 192.692 153.288 192.847C153.279 193.001 153.215 193.147 153.106 193.257C152.998 193.367 152.852 193.433 152.698 193.443C152.544 193.452 152.392 193.405 152.27 193.31L150.27 191.3ZM148.87 195.92C148.718 195.901 148.578 195.827 148.477 195.712C148.375 195.596 148.319 195.448 148.319 195.295C148.319 195.142 148.375 194.994 148.477 194.878C148.578 194.763 148.718 194.689 148.87 194.67H151.67C151.759 194.659 151.849 194.667 151.934 194.693C152.02 194.719 152.099 194.763 152.166 194.822C152.233 194.881 152.287 194.954 152.323 195.036C152.36 195.117 152.379 195.206 152.379 195.295C152.379 195.384 152.36 195.473 152.323 195.554C152.287 195.636 152.233 195.709 152.166 195.768C152.099 195.827 152.02 195.871 151.934 195.897C151.849 195.923 151.759 195.931 151.67 195.92H148.87ZM151.15 200.17C151.093 200.229 151.025 200.276 150.949 200.309C150.874 200.341 150.792 200.358 150.71 200.358C150.628 200.358 150.546 200.341 150.471 200.309C150.395 200.276 150.327 200.229 150.27 200.17C150.211 200.114 150.164 200.046 150.132 199.972C150.1 199.897 150.083 199.816 150.083 199.735C150.083 199.654 150.1 199.573 150.132 199.498C150.164 199.424 150.211 199.356 150.27 199.3L152.27 197.3C152.388 197.185 152.546 197.121 152.71 197.121C152.874 197.121 153.032 197.185 153.15 197.3C153.209 197.357 153.256 197.425 153.289 197.501C153.321 197.576 153.338 197.658 153.338 197.74C153.338 197.822 153.321 197.904 153.289 197.979C153.256 198.055 153.209 198.123 153.15 198.18L151.15 200.17ZM155.77 201.57C155.781 201.659 155.773 201.749 155.747 201.834C155.721 201.92 155.677 201.999 155.618 202.066C155.559 202.133 155.486 202.187 155.404 202.223C155.323 202.26 155.234 202.279 155.145 202.279C155.056 202.279 154.967 202.26 154.886 202.223C154.804 202.187 154.731 202.133 154.672 202.066C154.613 201.999 154.569 201.92 154.543 201.834C154.517 201.749 154.509 201.659 154.52 201.57V198.78C154.509 198.691 154.517 198.601 154.543 198.516C154.569 198.43 154.613 198.351 154.672 198.284C154.731 198.217 154.804 198.163 154.886 198.127C154.967 198.09 155.056 198.071 155.145 198.071C155.234 198.071 155.323 198.09 155.404 198.127C155.486 198.163 155.559 198.217 155.618 198.284C155.677 198.351 155.721 198.43 155.747 198.516C155.773 198.601 155.781 198.691 155.77 198.78V201.57ZM160.03 199.3C160.145 199.418 160.209 199.577 160.207 199.742C160.205 199.907 160.138 200.065 160.02 200.18C159.902 200.295 159.743 200.359 159.578 200.357C159.413 200.355 159.255 200.288 159.14 200.17L157.14 198.17C157.081 198.113 157.034 198.045 157.001 197.969C156.969 197.894 156.952 197.812 156.952 197.73C156.952 197.648 156.969 197.566 157.001 197.491C157.034 197.415 157.081 197.347 157.14 197.29C157.258 197.175 157.416 197.111 157.58 197.111C157.744 197.111 157.902 197.175 158.02 197.29L160.03 199.3ZM161.42 194.67C161.509 194.659 161.599 194.667 161.684 194.693C161.77 194.719 161.849 194.763 161.916 194.822C161.983 194.881 162.037 194.954 162.073 195.036C162.11 195.117 162.129 195.206 162.129 195.295C162.129 195.384 162.11 195.473 162.073 195.554C162.037 195.636 161.983 195.709 161.916 195.768C161.849 195.827 161.77 195.871 161.684 195.897C161.599 195.923 161.509 195.931 161.42 195.92H158.61C158.458 195.901 158.318 195.827 158.217 195.712C158.115 195.596 158.059 195.448 158.059 195.295C158.059 195.142 158.115 194.994 158.217 194.878C158.318 194.763 158.458 194.689 158.61 194.67H161.42ZM159.14 190.42C159.195 190.35 159.264 190.292 159.342 190.251C159.421 190.21 159.507 190.185 159.596 190.18C159.685 190.174 159.774 190.187 159.857 190.218C159.94 190.249 160.016 190.298 160.079 190.36C160.142 190.423 160.191 190.498 160.224 190.581C160.256 190.664 160.27 190.752 160.265 190.841C160.261 190.93 160.237 191.017 160.197 191.096C160.156 191.175 160.099 191.244 160.03 191.3L158.03 193.3C157.908 193.395 157.756 193.442 157.602 193.433C157.448 193.423 157.302 193.357 157.194 193.247C157.085 193.137 157.021 192.991 157.012 192.837C157.004 192.682 157.053 192.531 157.15 192.41L159.14 190.42Z" fill="#BCE8FF"/>
<path fill-rule="evenodd" clip-rule="evenodd" d="M32.49 297.21H36C36.3112 297.21 36.6099 297.333 36.8309 297.552C37.0519 297.771 37.1774 298.069 37.18 298.38V301.92C37.18 302.233 37.0557 302.533 36.8344 302.754C36.6131 302.976 36.313 303.1 36 303.1H32.49C32.3355 303.1 32.1825 303.069 32.0399 303.01C31.8973 302.951 31.7679 302.863 31.6591 302.754C31.5503 302.644 31.4644 302.514 31.4062 302.371C31.348 302.228 31.3187 302.074 31.32 301.92V298.38C31.32 298.07 31.4433 297.772 31.6627 297.553C31.8821 297.333 32.1797 297.21 32.49 297.21Z" fill="#86CBEE"/>
<path fill-rule="evenodd" clip-rule="evenodd" d="M44.56 297.21H48.1C48.4095 297.213 48.7056 297.337 48.9244 297.556C49.1433 297.774 49.2674 298.071 49.27 298.38V301.92C49.27 302.231 49.1471 302.53 48.9279 302.751C48.7088 302.972 48.4112 303.097 48.1 303.1H44.56C44.405 303.1 44.2516 303.069 44.1084 303.01C43.9653 302.951 43.8352 302.864 43.7256 302.754C43.616 302.645 43.5291 302.515 43.4698 302.372C43.4105 302.228 43.38 302.075 43.38 301.92V298.38C43.3826 298.069 43.5081 297.771 43.7291 297.552C43.9501 297.333 44.2488 297.21 44.56 297.21Z" fill="#86CBEE"/>
<path fill-rule="evenodd" clip-rule="evenodd" d="M56.62 297.21H60.16C60.4712 297.21 60.7699 297.333 60.9909 297.552C61.2119 297.771 61.3374 298.069 61.34 298.38V301.92C61.34 302.233 61.2157 302.533 60.9944 302.754C60.7731 302.976 60.473 303.1 60.16 303.1H56.62C56.3088 303.097 56.0112 302.972 55.7921 302.751C55.5729 302.53 55.45 302.231 55.45 301.92V298.38C55.4526 298.071 55.5767 297.774 55.7956 297.556C56.0144 297.337 56.3105 297.213 56.62 297.21Z" fill="#DED8F9"/>
<path fill-rule="evenodd" clip-rule="evenodd" d="M68.7 297.21H72.23C72.5403 297.21 72.8379 297.333 73.0573 297.553C73.2767 297.772 73.4 298.07 73.4 298.38V301.92C73.4013 302.075 73.372 302.228 73.3138 302.371C73.2556 302.514 73.1696 302.644 73.0609 302.754C72.9521 302.864 72.8227 302.951 72.6801 303.01C72.5375 303.069 72.3845 303.1 72.23 303.1H68.7C68.387 303.1 68.0869 302.976 67.8656 302.754C67.6443 302.533 67.52 302.233 67.52 301.92V298.38C67.52 298.226 67.5506 298.073 67.61 297.93C67.6694 297.787 67.7565 297.658 67.8662 297.549C67.9759 297.44 68.1061 297.354 68.2492 297.296C68.3923 297.238 68.5455 297.209 68.7 297.21Z" fill="#DED8F9"/>
<path d="M109.58 23.95C109.58 23.7856 109.645 23.6279 109.762 23.5116C109.878 23.3953 110.036 23.33 110.2 23.33C110.364 23.33 110.522 23.3953 110.638 23.5116C110.755 23.6279 110.82 23.7856 110.82 23.95V26.78C110.82 26.9444 110.755 27.1021 110.638 27.2184C110.522 27.3347 110.364 27.4 110.2 27.4C110.036 27.4 109.878 27.3347 109.762 27.2184C109.645 27.1021 109.58 26.9444 109.58 26.78V23.95ZM105.32 26.24C105.257 26.1826 105.206 26.1131 105.171 26.0355C105.136 25.958 105.117 25.8741 105.115 25.789C105.113 25.7038 105.128 25.6191 105.16 25.54C105.191 25.461 105.239 25.3891 105.299 25.3289C105.359 25.2687 105.431 25.2213 105.51 25.1896C105.589 25.1579 105.674 25.1426 105.759 25.1446C105.844 25.1465 105.928 25.1657 106.006 25.2011C106.083 25.2364 106.153 25.287 106.21 25.35L108.21 27.35C108.28 27.4048 108.338 27.4737 108.379 27.5524C108.42 27.631 108.445 27.7175 108.45 27.8061C108.456 27.8948 108.443 27.9837 108.412 28.0669C108.381 28.1501 108.332 28.2258 108.27 28.289C108.207 28.3522 108.132 28.4015 108.049 28.4336C107.966 28.4656 107.878 28.4798 107.789 28.4752C107.7 28.4706 107.613 28.4472 107.534 28.4067C107.455 28.3662 107.386 28.3093 107.33 28.24L105.32 26.24ZM103.93 30.86C103.763 30.86 103.603 30.7936 103.485 30.6755C103.366 30.5573 103.3 30.3971 103.3 30.23C103.3 30.1477 103.316 30.0663 103.348 29.9904C103.38 29.9145 103.426 29.8457 103.485 29.788C103.544 29.7303 103.613 29.6849 103.69 29.6543C103.766 29.6237 103.848 29.6087 103.93 29.61H106.74C106.904 29.61 107.062 29.6753 107.178 29.7916C107.295 29.9079 107.36 30.0656 107.36 30.23C107.36 30.3954 107.295 30.5541 107.179 30.672C107.063 30.7898 106.905 30.8574 106.74 30.86H103.93ZM106.21 35.11C106.091 35.2255 105.931 35.29 105.765 35.29C105.599 35.29 105.439 35.2255 105.32 35.11C105.205 34.9923 105.141 34.8344 105.141 34.67C105.141 34.5056 105.205 34.3477 105.32 34.23L107.32 32.23C107.438 32.1152 107.596 32.0509 107.76 32.0509C107.924 32.0509 108.082 32.1152 108.2 32.23C108.259 32.2869 108.306 32.3552 108.339 32.4309C108.371 32.5065 108.388 32.5878 108.388 32.67C108.388 32.7522 108.371 32.8335 108.339 32.9091C108.306 32.9848 108.259 33.0531 108.2 33.11L106.21 35.11ZM110.82 36.51C110.82 36.6744 110.755 36.8321 110.638 36.9484C110.522 37.0647 110.364 37.13 110.2 37.13C110.036 37.13 109.878 37.0647 109.762 36.9484C109.645 36.8321 109.58 36.6744 109.58 36.51V33.7C109.58 33.5356 109.645 33.3779 109.762 33.2616C109.878 33.1453 110.036 33.08 110.2 33.08C110.364 33.08 110.522 33.1453 110.638 33.2616C110.755 33.3779 110.82 33.5356 110.82 33.7V36.51ZM115.08 34.23C115.197 34.3467 115.262 34.505 115.262 34.67C115.262 34.835 115.197 34.9933 115.08 35.11C114.963 35.2267 114.805 35.2923 114.64 35.2923C114.475 35.2923 114.317 35.2267 114.2 35.11L112.2 33.11C112.141 33.0531 112.094 32.9848 112.061 32.9091C112.029 32.8335 112.012 32.7522 112.012 32.67C112.012 32.5878 112.029 32.5065 112.061 32.4309C112.094 32.3552 112.141 32.2869 112.2 32.23C112.318 32.1152 112.476 32.0509 112.64 32.0509C112.804 32.0509 112.962 32.1152 113.08 32.23L115.08 34.23ZM116.48 29.61C116.562 29.6086 116.643 29.6238 116.719 29.6544C116.795 29.6851 116.864 29.7307 116.921 29.7886C116.979 29.8464 117.025 29.9153 117.056 29.9911C117.086 30.067 117.101 30.1482 117.1 30.23C117.1 30.3954 117.035 30.5541 116.919 30.672C116.803 30.7898 116.645 30.8574 116.48 30.86H113.68C113.513 30.86 113.353 30.7936 113.235 30.6755C113.116 30.5573 113.05 30.3971 113.05 30.23C113.049 30.1473 113.064 30.0653 113.095 29.9888C113.127 29.9122 113.173 29.8429 113.232 29.7849C113.291 29.7269 113.361 29.6815 113.438 29.6514C113.515 29.6214 113.597 29.6073 113.68 29.61H116.48ZM114.2 25.35C114.318 25.2352 114.476 25.1709 114.64 25.1709C114.804 25.1709 114.962 25.2352 115.08 25.35C115.195 25.4694 115.26 25.6289 115.26 25.795C115.26 25.9611 115.195 26.1206 115.08 26.24L113.08 28.24C113.024 28.3093 112.955 28.3662 112.876 28.4067C112.797 28.4472 112.71 28.4706 112.621 28.4752C112.532 28.4798 112.444 28.4656 112.361 28.4336C112.278 28.4015 112.203 28.3522 112.14 28.289C112.078 28.2258 112.029 28.1501 111.998 28.0669C111.967 27.9837 111.954 27.8948 111.96 27.8061C111.965 27.7175 111.99 27.631 112.031 27.5524C112.072 27.4737 112.13 27.4048 112.2 27.35L114.2 25.35Z" fill="#BCE8FF"/>
<path fill-rule="evenodd" clip-rule="evenodd" d="M138.67 144.65H142.21C142.522 144.653 142.821 144.778 143.042 144.999C143.262 145.219 143.387 145.518 143.39 145.83V149.36C143.387 149.672 143.262 149.971 143.042 150.191C142.821 150.412 142.522 150.537 142.21 150.54H138.67C138.359 150.537 138.061 150.412 137.842 150.191C137.623 149.97 137.5 149.671 137.5 149.36V145.83C137.5 145.519 137.623 145.22 137.842 144.999C138.061 144.778 138.359 144.653 138.67 144.65Z" fill="#F1EFFD"/>
<path fill-rule="evenodd" clip-rule="evenodd" d="M150.75 144.65H154.28C154.434 144.65 154.587 144.681 154.73 144.74C154.873 144.799 155.002 144.887 155.111 144.996C155.22 145.106 155.306 145.236 155.364 145.379C155.422 145.522 155.451 145.676 155.45 145.83V149.36C155.451 149.514 155.422 149.668 155.364 149.811C155.306 149.954 155.22 150.084 155.111 150.194C155.002 150.303 154.873 150.391 154.73 150.45C154.587 150.509 154.434 150.54 154.28 150.54H150.75C150.437 150.54 150.137 150.416 149.916 150.194C149.694 149.973 149.57 149.673 149.57 149.36V145.83C149.57 145.517 149.694 145.217 149.916 144.996C150.137 144.774 150.437 144.65 150.75 144.65Z" fill="#F1EFFD"/>
<path fill-rule="evenodd" clip-rule="evenodd" d="M162.81 144.65H166.35C166.662 144.653 166.961 144.778 167.182 144.999C167.402 145.219 167.527 145.518 167.53 145.83V149.36C167.527 149.672 167.402 149.971 167.182 150.191C166.961 150.412 166.662 150.537 166.35 150.54H162.81C162.498 150.537 162.199 150.412 161.979 150.191C161.758 149.971 161.633 149.672 161.63 149.36V145.83C161.633 145.518 161.758 145.219 161.979 144.999C162.199 144.778 162.498 144.653 162.81 144.65Z" fill="#F1EFFD"/>
<path fill-rule="evenodd" clip-rule="evenodd" d="M174.88 144.65H178.41C178.723 144.65 179.023 144.774 179.244 144.996C179.466 145.217 179.59 145.517 179.59 145.83V149.36C179.59 149.673 179.466 149.973 179.244 150.194C179.023 150.416 178.723 150.54 178.41 150.54H174.88C174.726 150.54 174.573 150.509 174.43 150.45C174.287 150.391 174.158 150.303 174.049 150.194C173.94 150.084 173.854 149.954 173.796 149.811C173.738 149.668 173.709 149.514 173.71 149.36V145.83C173.709 145.676 173.738 145.522 173.796 145.379C173.854 145.236 173.94 145.106 174.049 144.996C174.158 144.887 174.287 144.799 174.43 144.74C174.573 144.681 174.726 144.65 174.88 144.65Z" fill="#F1EFFD"/>
<path fill-rule="evenodd" clip-rule="evenodd" d="M480.37 94.33V171.55H468.15C463.94 171.563 459.906 173.242 456.929 176.219C453.952 179.196 452.273 183.23 452.26 187.44C452.276 191.648 453.955 195.68 456.932 198.655C459.909 201.63 463.942 203.307 468.15 203.32H480.37V361.63H410.37V6.07C420.685 11.0629 429.388 18.8551 435.486 28.5572C441.585 38.2593 444.833 49.4804 444.86 60.94C444.889 69.7884 448.418 78.2659 454.675 84.5218C460.933 90.7776 469.412 94.3036 478.26 94.33H480.37Z" fill="#AFCFDF"/>
<path fill-rule="evenodd" clip-rule="evenodd" d="M416.51 9.48999V361.63H404.3V3.50999C408.582 5.04574 412.678 7.05841 416.51 9.51V9.48999Z" fill="#41B1EA"/>
<path fill-rule="evenodd" clip-rule="evenodd" d="M431.6 23.05V361.63H419.38V11.43C423.965 14.7265 428.077 18.6363 431.6 23.05Z" fill="#41B1EA"/>
<path fill-rule="evenodd" clip-rule="evenodd" d="M446.69 71.69V361.63H434.47V26.95C441.277 36.9811 444.911 48.8272 444.9 60.95C444.899 64.6076 445.504 68.2401 446.69 71.7V71.69Z" fill="#41B1EA"/>
<path fill-rule="evenodd" clip-rule="evenodd" d="M461.78 89.93V172.93C458.961 174.179 456.563 176.215 454.874 178.795C453.185 181.374 452.277 184.387 452.26 187.47C452.277 190.553 453.185 193.566 454.874 196.145C456.563 198.725 458.961 200.761 461.78 202.01V361.63H449.56V77.89C452.536 82.8722 456.745 87.0047 461.78 89.89V89.93Z" fill="#41B1EA"/>
<path fill-rule="evenodd" clip-rule="evenodd" d="M476.86 94.3V171.55H468.15C466.969 171.551 465.791 171.685 464.64 171.95V91.39C468.491 93.13 472.638 94.1177 476.86 94.3ZM476.86 203.3V361.63H464.64V202.93C465.792 203.192 466.969 203.323 468.15 203.32L476.86 203.3Z" fill="#41B1EA"/>
<path fill-rule="evenodd" clip-rule="evenodd" d="M313.12 333.36H316.66C316.97 333.36 317.268 333.483 317.487 333.703C317.707 333.922 317.83 334.22 317.83 334.53V338.06C317.831 338.214 317.802 338.368 317.744 338.511C317.686 338.654 317.6 338.784 317.491 338.894C317.382 339.004 317.253 339.091 317.11 339.15C316.967 339.209 316.814 339.24 316.66 339.24H313.12C312.807 339.24 312.507 339.116 312.286 338.894C312.064 338.673 311.94 338.373 311.94 338.06V334.53C311.94 334.376 311.971 334.223 312.03 334.08C312.089 333.937 312.177 333.808 312.286 333.699C312.396 333.59 312.526 333.504 312.669 333.446C312.812 333.388 312.966 333.359 313.12 333.36Z" fill="#F1EFFD"/>
<path fill-rule="evenodd" clip-rule="evenodd" d="M325.19 333.36H328.72C328.874 333.359 329.028 333.388 329.171 333.446C329.314 333.504 329.444 333.59 329.554 333.699C329.663 333.808 329.751 333.937 329.81 334.08C329.869 334.223 329.9 334.376 329.9 334.53V338.06C329.9 338.373 329.776 338.673 329.554 338.894C329.333 339.116 329.033 339.24 328.72 339.24H325.19C325.036 339.24 324.883 339.209 324.74 339.15C324.597 339.091 324.468 339.004 324.359 338.894C324.25 338.784 324.164 338.654 324.106 338.511C324.048 338.368 324.019 338.214 324.02 338.06V334.53C324.02 334.376 324.05 334.224 324.109 334.082C324.168 333.94 324.254 333.811 324.363 333.703C324.471 333.594 324.6 333.508 324.742 333.449C324.884 333.39 325.036 333.36 325.19 333.36Z" fill="#F1EFFD"/>
<path fill-rule="evenodd" clip-rule="evenodd" d="M337.26 333.36H340.79C340.944 333.359 341.098 333.388 341.241 333.446C341.384 333.504 341.514 333.59 341.624 333.699C341.733 333.808 341.821 333.937 341.88 334.08C341.939 334.223 341.97 334.376 341.97 334.53V338.06C341.97 338.373 341.846 338.673 341.624 338.894C341.403 339.116 341.103 339.24 340.79 339.24H337.26C336.947 339.24 336.647 339.116 336.426 338.894C336.204 338.673 336.08 338.373 336.08 338.06V334.53C336.08 334.376 336.111 334.223 336.17 334.08C336.229 333.937 336.317 333.808 336.426 333.699C336.536 333.59 336.666 333.504 336.809 333.446C336.952 333.388 337.106 333.359 337.26 333.36Z" fill="#F1EFFD"/>
<path fill-rule="evenodd" clip-rule="evenodd" d="M349.33 333.36H352.86C353.014 333.359 353.168 333.388 353.311 333.446C353.454 333.504 353.584 333.59 353.694 333.699C353.803 333.808 353.891 333.937 353.95 334.08C354.009 334.223 354.04 334.376 354.04 334.53V338.06C354.04 338.373 353.916 338.673 353.694 338.894C353.473 339.116 353.173 339.24 352.86 339.24H349.33C349.017 339.24 348.717 339.116 348.496 338.894C348.274 338.673 348.15 338.373 348.15 338.06V334.53C348.15 334.376 348.181 334.223 348.24 334.08C348.299 333.937 348.387 333.808 348.496 333.699C348.606 333.59 348.736 333.504 348.879 333.446C349.022 333.388 349.176 333.359 349.33 333.36Z" fill="#F1EFFD"/>
<path fill-rule="evenodd" clip-rule="evenodd" d="M333.37 12.94H336.9C337.055 12.94 337.208 12.9705 337.352 13.0298C337.495 13.0891 337.625 13.176 337.734 13.2856C337.844 13.3952 337.931 13.5253 337.99 13.6684C338.049 13.8116 338.08 13.965 338.08 14.12V17.65C338.07 17.9551 337.94 18.244 337.72 18.4551C337.499 18.6662 337.205 18.7828 336.9 18.78H333.37C333.216 18.7813 333.062 18.752 332.919 18.6938C332.776 18.6356 332.646 18.5496 332.536 18.4409C332.427 18.3321 332.339 18.2027 332.28 18.0601C332.221 17.9175 332.19 17.7645 332.19 17.61V14.12C332.19 13.965 332.221 13.8116 332.28 13.6684C332.339 13.5253 332.426 13.3952 332.536 13.2856C332.645 13.176 332.775 13.0891 332.918 13.0298C333.062 12.9705 333.215 12.94 333.37 12.94Z" fill="#F1EFFD"/>
<path fill-rule="evenodd" clip-rule="evenodd" d="M345.44 12.94H349C349.311 12.9426 349.609 13.0681 349.828 13.2891C350.047 13.5101 350.17 13.8088 350.17 14.12V17.65C350.16 17.9533 350.032 18.2407 349.813 18.4516C349.595 18.6624 349.303 18.7802 349 18.78H345.47C345.316 18.7813 345.162 18.752 345.019 18.6938C344.876 18.6356 344.746 18.5496 344.636 18.4409C344.526 18.3321 344.439 18.2027 344.38 18.0601C344.321 17.9175 344.29 17.7645 344.29 17.61V14.12C344.29 13.965 344.321 13.8116 344.38 13.6684C344.439 13.5253 344.526 13.3952 344.636 13.2856C344.745 13.176 344.875 13.0891 345.018 13.0298C345.162 12.9705 345.315 12.94 345.47 12.94H345.44Z" fill="#F1EFFD"/>
<path fill-rule="evenodd" clip-rule="evenodd" d="M357.51 12.94H361C361.156 12.9387 361.31 12.9682 361.455 13.0269C361.599 13.0856 361.73 13.1724 361.841 13.2821C361.951 13.3918 362.039 13.5223 362.099 13.6661C362.159 13.8099 362.19 13.9642 362.19 14.12V17.65C362.177 17.9559 362.046 18.2449 361.824 18.4557C361.602 18.6666 361.306 18.7829 361 18.78H357.48C357.326 18.7813 357.172 18.752 357.029 18.6938C356.886 18.6356 356.756 18.5496 356.646 18.4409C356.537 18.3321 356.449 18.2027 356.39 18.0601C356.331 17.9174 356.3 17.7645 356.3 17.61V14.12C356.3 13.965 356.331 13.8116 356.39 13.6684C356.449 13.5253 356.536 13.3952 356.646 13.2856C356.755 13.176 356.885 13.0891 357.028 13.0298C357.172 12.9705 357.325 12.94 357.48 12.94H357.51Z" fill="#F1EFFD"/>
<path fill-rule="evenodd" clip-rule="evenodd" d="M369.57 12.94H373.11C373.421 12.9426 373.719 13.0681 373.938 13.2891C374.157 13.5101 374.28 13.8088 374.28 14.12V17.65C374.27 17.9533 374.142 18.2407 373.923 18.4516C373.705 18.6624 373.413 18.7802 373.11 18.78H369.57C369.259 18.78 368.96 18.6571 368.739 18.4379C368.518 18.2188 368.393 17.9212 368.39 17.61V14.12C368.393 13.8078 368.518 13.5092 368.738 13.2885C368.959 13.0678 369.258 12.9426 369.57 12.94Z" fill="#F1EFFD"/>
<path fill-rule="evenodd" clip-rule="evenodd" d="M502.8 230.67H506.33C506.64 230.67 506.938 230.793 507.157 231.013C507.377 231.232 507.5 231.53 507.5 231.84V235.37C507.5 235.681 507.377 235.98 507.158 236.201C506.939 236.422 506.641 236.547 506.33 236.55H502.8C502.487 236.55 502.187 236.426 501.966 236.204C501.744 235.983 501.62 235.683 501.62 235.37V231.84C501.62 231.686 501.651 231.533 501.71 231.39C501.769 231.247 501.856 231.118 501.966 231.009C502.076 230.9 502.206 230.814 502.349 230.756C502.492 230.698 502.646 230.669 502.8 230.67Z" fill="#F1EFFD"/>
<path fill-rule="evenodd" clip-rule="evenodd" d="M514.86 230.67H518.4C518.711 230.67 519.01 230.793 519.231 231.012C519.452 231.231 519.577 231.529 519.58 231.84V235.37C519.577 235.682 519.452 235.981 519.232 236.202C519.011 236.422 518.712 236.547 518.4 236.55H514.86C514.549 236.547 514.251 236.422 514.032 236.201C513.813 235.98 513.69 235.681 513.69 235.37V231.84C513.69 231.53 513.813 231.232 514.033 231.013C514.252 230.793 514.55 230.67 514.86 230.67Z" fill="#F1EFFD"/>
<path fill-rule="evenodd" clip-rule="evenodd" d="M526.93 230.67H530.46C530.615 230.669 530.768 230.698 530.911 230.756C531.054 230.814 531.184 230.9 531.294 231.009C531.403 231.118 531.491 231.247 531.55 231.39C531.609 231.533 531.64 231.686 531.64 231.84V235.37C531.64 235.683 531.516 235.983 531.294 236.204C531.073 236.426 530.773 236.55 530.46 236.55H526.93C526.617 236.55 526.317 236.426 526.096 236.204C525.874 235.983 525.75 235.683 525.75 235.37V231.84C525.75 231.686 525.781 231.533 525.84 231.39C525.899 231.247 525.986 231.118 526.096 231.009C526.206 230.9 526.336 230.814 526.479 230.756C526.622 230.698 526.776 230.669 526.93 230.67Z" fill="#F1EFFD"/>
<path fill-rule="evenodd" clip-rule="evenodd" d="M539 230.67H542.53C542.685 230.669 542.838 230.698 542.981 230.756C543.124 230.814 543.254 230.9 543.364 231.009C543.473 231.118 543.561 231.247 543.62 231.39C543.679 231.533 543.71 231.686 543.71 231.84V235.37C543.71 235.683 543.586 235.983 543.364 236.204C543.143 236.426 542.843 236.55 542.53 236.55H539C538.688 236.547 538.389 236.422 538.169 236.202C537.948 235.981 537.823 235.682 537.82 235.37V231.84C537.823 231.529 537.948 231.231 538.169 231.012C538.39 230.793 538.689 230.67 539 230.67Z" fill="#F1EFFD"/>
<path fill-rule="evenodd" clip-rule="evenodd" d="M91.25 352.47C91.2941 344.186 92.2159 335.93 94 327.84L94.06 327.63C94.15 327.25 94.44 326.53 95.2 326.74C96.2 327.01 104.51 331.67 112.26 339.57C120.01 347.47 119.89 335.57 113.15 330.92C106.41 326.27 99.55 324.28 97.49 322.49C96.9072 322.049 96.4456 321.467 96.1484 320.799C95.8511 320.131 95.7278 319.398 95.79 318.67C97.4 309.62 98.6 300.36 99.44 291.23C99.44 291.23 99.83 289.23 101.71 291.58C103.59 293.93 110.95 302.04 116.66 302.58C122.37 303.12 117.14 294.07 109.07 289.58C101 285.09 100.07 284.19 100.07 283.11C100.59 275.92 100.89 268.89 101 262.19C101 262.19 101.32 260.99 102.39 261.86C103.46 262.73 111.47 271.91 115.75 270.94C120.03 269.97 115.87 262.14 109.05 259.4C102.23 256.66 101.05 255.84 101.05 254.83C100.98 235 99.23 219.03 96.59 212.23C93.85 205.16 111.26 221.16 127.35 247.29C128.73 249.67 128.64 251.03 127.75 253.92C126.75 257.01 125.75 263.98 128.25 262.36C130.75 260.74 131.12 254.61 131.33 254.5C131.379 254.47 131.437 254.458 131.494 254.467C131.551 254.476 131.603 254.506 131.64 254.55C134.27 259.22 136.81 264.14 139.16 269.25C141.58 274.99 138.34 278.9 133.84 284.5C129.16 290.31 130.01 296.5 134.97 293.88C139.93 291.26 142.24 279.23 142.65 278.88C143.06 278.53 143.31 279.03 143.35 279.12C146.691 287.607 149.199 296.398 150.84 305.37C151.17 309.84 147.53 313.54 143.71 319.58C139.89 325.62 142.82 329.33 145.86 328.5C148.9 327.67 150.94 320.25 151.6 319.77C152.26 319.29 152.4 319.7 152.43 319.77C152.83 328.497 151.879 337.234 149.61 345.67C147.843 352.218 145.689 358.656 143.16 364.95H103.76L91.25 352.47Z" fill="#2CA07F"/>
<path fill-rule="evenodd" clip-rule="evenodd" d="M137 365C131.83 296 114.11 236.26 114 236C113.943 235.803 113.847 235.619 113.719 235.459C113.591 235.299 113.433 235.166 113.253 235.067C113.073 234.968 112.876 234.905 112.672 234.883C112.468 234.86 112.262 234.878 112.065 234.935C111.868 234.992 111.684 235.087 111.524 235.216C111.364 235.344 111.231 235.502 111.132 235.682C111.033 235.862 110.97 236.059 110.948 236.263C110.925 236.467 110.943 236.673 111 236.87C111.09 237.17 128.72 296.58 133.89 365.05L137 365Z" fill="#9BE4D0"/>
<path fill-rule="evenodd" clip-rule="evenodd" d="M169.54 270.13C199.43 252.43 207.68 289.26 201.62 305.95C197.13 318.3 181.21 345.35 170 365H128.31C133.72 323.72 147.55 283.16 169.54 270.13Z" fill="#2CA07F"/>
<path fill-rule="evenodd" clip-rule="evenodd" d="M146.46 365C161.67 316.78 185 276.78 185.08 276.59C185.286 276.288 185.585 276.061 185.931 275.942C186.277 275.823 186.652 275.819 187 275.93C187.159 275.959 187.31 276.026 187.438 276.125C187.565 276.225 187.667 276.354 187.734 276.501C187.801 276.649 187.831 276.811 187.822 276.972C187.812 277.134 187.764 277.291 187.68 277.43C187.56 277.64 164.48 317.21 149.34 365H146.46Z" fill="#9BE4D0"/>
<path fill-rule="evenodd" clip-rule="evenodd" d="M41.49 249.02C50.71 214.19 83.18 233.26 97.13 263.02C105 279.82 118.64 324.16 133.98 365.02H95L83.41 358.52C56.46 308.12 37.79 262.95 41.47 249.04L41.49 249.02Z" fill="#65BCA3"/>
<path fill-rule="evenodd" clip-rule="evenodd" d="M104.5 356.63C74.88 300.44 59.43 245.87 59.35 245.63C59.2426 245.26 59.2865 244.863 59.4722 244.525C59.6579 244.187 59.97 243.937 60.34 243.83C60.71 243.723 61.1075 243.767 61.445 243.952C61.7826 244.138 62.0326 244.45 62.14 244.82C62.22 245.12 79.2 305.05 111.58 363.73L104.5 356.63Z" fill="#9BE4D0"/>
<path d="M592.84 254.9H555.78V266.13H592.84V254.9Z" fill="#BBBBF6"/>
<path d="M576.63 268.38H539.56V279.61H576.63V268.38Z" fill="#BBBBF6"/>
<path fill-rule="evenodd" clip-rule="evenodd" d="M578.4 268.38H601.85C602.518 272.09 602.923 275.843 603.06 279.61H578.4V268.38Z" fill="#BBBBF6"/>
<path d="M592.84 281.85H555.78V293.08H592.84V281.85Z" fill="#BBBBF6"/>
<path fill-rule="evenodd" clip-rule="evenodd" d="M594.61 281.85H603.1C603.1 282.06 603.1 282.27 603.1 282.47C603.102 286.022 602.865 289.57 602.39 293.09H594.6L594.61 281.85Z" fill="#BBBBF6"/>
<path fill-rule="evenodd" clip-rule="evenodd" d="M578.4 295.33H602.05C601.426 299.139 600.52 302.896 599.34 306.57H578.4V295.33Z" fill="#BBBBF6"/>
<path d="M516.24 307.25C516.24 307.083 516.306 306.923 516.424 306.805C516.543 306.686 516.703 306.62 516.87 306.62C517.037 306.62 517.197 306.686 517.315 306.805C517.434 306.923 517.5 307.083 517.5 307.25V310.06C517.5 310.227 517.434 310.387 517.315 310.505C517.197 310.624 517.037 310.69 516.87 310.69C516.703 310.69 516.543 310.624 516.424 310.505C516.306 310.387 516.24 310.227 516.24 310.06V307.25ZM512 309.53C511.941 309.473 511.894 309.405 511.861 309.329C511.829 309.254 511.812 309.172 511.812 309.09C511.812 309.008 511.829 308.926 511.861 308.851C511.894 308.775 511.941 308.707 512 308.65C512.119 308.535 512.279 308.47 512.445 308.47C512.611 308.47 512.771 308.535 512.89 308.65L514.89 310.65C515.007 310.767 515.072 310.925 515.072 311.09C515.072 311.255 515.007 311.413 514.89 311.53C514.773 311.647 514.615 311.712 514.45 311.712C514.285 311.712 514.127 311.647 514.01 311.53L512 309.53ZM510.6 314.16C510.435 314.157 510.277 314.09 510.161 313.972C510.045 313.854 509.98 313.695 509.98 313.53C509.98 313.366 510.045 313.208 510.162 313.092C510.278 312.975 510.436 312.91 510.6 312.91H513.41C513.575 312.91 513.734 312.975 513.852 313.091C513.97 313.207 514.037 313.365 514.04 313.53C514.037 313.696 513.97 313.855 513.853 313.973C513.735 314.09 513.576 314.157 513.41 314.16H510.6ZM512.89 318.41C512.833 318.473 512.763 318.524 512.686 318.559C512.608 318.594 512.524 318.613 512.439 318.615C512.354 318.617 512.269 318.602 512.19 318.57C512.111 318.539 512.039 318.491 511.979 318.431C511.919 318.371 511.871 318.299 511.84 318.22C511.808 318.141 511.793 318.056 511.795 317.971C511.797 317.886 511.816 317.802 511.851 317.724C511.886 317.647 511.937 317.577 512 317.52L514 315.52C514.117 315.403 514.275 315.338 514.44 315.338C514.605 315.338 514.763 315.403 514.88 315.52C514.997 315.637 515.062 315.795 515.062 315.96C515.062 316.125 514.997 316.283 514.88 316.4L512.89 318.41ZM517.51 319.81C517.51 319.977 517.444 320.137 517.326 320.255C517.207 320.374 517.047 320.44 516.88 320.44C516.713 320.44 516.553 320.374 516.435 320.255C516.316 320.137 516.25 319.977 516.25 319.81V317C516.25 316.833 516.316 316.673 516.435 316.555C516.553 316.436 516.713 316.37 516.88 316.37C517.047 316.37 517.207 316.436 517.326 316.555C517.444 316.673 517.51 316.833 517.51 317V319.81ZM521.76 317.52C521.82 317.578 521.867 317.647 521.899 317.723C521.932 317.8 521.948 317.882 521.948 317.965C521.948 318.048 521.932 318.13 521.899 318.207C521.867 318.283 521.82 318.352 521.76 318.41C521.703 318.469 521.635 318.516 521.559 318.549C521.484 318.581 521.402 318.598 521.32 318.598C521.238 318.598 521.156 318.581 521.081 318.549C521.005 318.516 520.937 318.469 520.88 318.41L518.88 316.41C518.763 316.293 518.698 316.135 518.698 315.97C518.698 315.805 518.763 315.647 518.88 315.53C518.997 315.413 519.155 315.348 519.32 315.348C519.485 315.348 519.643 315.413 519.76 315.53L521.76 317.52ZM523.16 312.91C523.324 312.91 523.482 312.975 523.598 313.092C523.715 313.208 523.78 313.366 523.78 313.53C523.78 313.695 523.715 313.854 523.599 313.972C523.483 314.09 523.325 314.157 523.16 314.16H520.35C520.184 314.157 520.025 314.09 519.907 313.973C519.79 313.855 519.723 313.696 519.72 313.53C519.723 313.365 519.79 313.207 519.908 313.091C520.026 312.975 520.185 312.91 520.35 312.91H523.16ZM520.88 308.65C520.998 308.535 521.156 308.471 521.32 308.471C521.484 308.471 521.642 308.535 521.76 308.65C521.819 308.707 521.866 308.775 521.899 308.851C521.931 308.926 521.948 309.008 521.948 309.09C521.948 309.172 521.931 309.254 521.899 309.329C521.866 309.405 521.819 309.473 521.76 309.53L519.76 311.53C519.643 311.647 519.485 311.712 519.32 311.712C519.155 311.712 518.997 311.647 518.88 311.53C518.763 311.413 518.698 311.255 518.698 311.09C518.698 310.925 518.763 310.767 518.88 310.65L520.88 308.65Z" fill="#8B77E6"/>
<path fill-rule="evenodd" clip-rule="evenodd" d="M583.1 250.06C591.72 278.06 594.94 293.25 599.57 305.83C601.921 298.266 603.114 290.391 603.11 282.47V242.32C603.11 169.32 572.47 215.57 583.11 250.06H583.1Z" fill="#2CA07F"/>
<path fill-rule="evenodd" clip-rule="evenodd" d="M476.26 356.54C468.251 345.954 462.258 333.985 458.58 321.23C451.45 296.02 480.74 323.96 503.84 356.54H476.26Z" fill="#2CA07F"/>
<path fill-rule="evenodd" clip-rule="evenodd" d="M516.54 356.54C509.32 344.34 502.16 328.29 501.04 311.4C498.67 275.86 498.04 264.69 491.21 258.93C485.41 254 555.43 255.05 584.79 332.98C576.001 343.543 564.635 351.658 551.79 356.54H516.54Z" fill="#2CA07F"/>
<path fill-rule="evenodd" clip-rule="evenodd" d="M501.25 257.7C527.76 281.81 548.61 317.46 563.89 350.7C563.16 351.13 562.42 351.55 561.69 351.95C546 317.78 524.48 281.14 497 257.29C498.27 257.35 499.7 257.48 501.27 257.7H501.25Z" fill="#96CCBD"/>
<path fill-rule="evenodd" clip-rule="evenodd" d="M576.46 218.65C582.3 233.05 590.92 265.35 601.12 300.11C596.973 317.964 586.79 333.838 572.29 345.05C547.6 309.78 526.09 269.78 518.05 237.97C501.89 174.04 552.19 158.81 576.46 218.65Z" fill="#65BCA3"/>
<path fill-rule="evenodd" clip-rule="evenodd" d="M586.52 330.78C552.33 270.98 536.4 200.78 536.33 200.53C536.291 200.367 536.285 200.198 536.312 200.033C536.339 199.868 536.399 199.71 536.487 199.567C536.575 199.425 536.691 199.302 536.827 199.205C536.963 199.107 537.117 199.038 537.28 199C537.447 198.963 537.619 198.96 537.787 198.991C537.955 199.021 538.116 199.085 538.259 199.178C538.402 199.271 538.526 199.392 538.622 199.533C538.718 199.674 538.786 199.833 538.82 200C538.89 200.3 554.59 269.46 588.17 328.63C587.63 329.37 587.08 330.11 586.52 330.83V330.78Z" fill="#9BE4D0"/>
<path fill-rule="evenodd" clip-rule="evenodd" d="M553.49 355.87C552.119 349.522 550.026 343.351 547.25 337.48C535.86 313.56 507.37 304.25 499.25 307.89C492.63 310.89 479.25 329.32 489.25 356.54H551.8C552.37 356.32 552.93 356.11 553.49 355.87Z" fill="#65BCA3"/>
<path fill-rule="evenodd" clip-rule="evenodd" d="M537 356.54C538.45 352.63 541.45 344.04 541.84 338.85C541.85 338.755 541.84 338.659 541.812 338.568C541.784 338.477 541.737 338.393 541.676 338.32C541.614 338.247 541.538 338.187 541.453 338.145C541.368 338.102 541.275 338.076 541.18 338.07C540.988 338.056 540.798 338.119 540.652 338.244C540.506 338.37 540.415 338.548 540.4 338.74C540.04 343.58 537.29 351.56 535.81 355.59C532.203 348.508 528.082 341.7 523.48 335.22C525.021 329.518 525.795 323.636 525.78 317.73C525.77 317.537 525.684 317.356 525.542 317.225C525.4 317.095 525.213 317.025 525.02 317.03C524.828 317.038 524.647 317.121 524.516 317.261C524.385 317.402 524.315 317.588 524.32 317.78C524.346 323.141 523.691 328.484 522.37 333.68C516.337 325.399 509.544 317.699 502.08 310.68C501.941 310.549 501.777 310.446 501.598 310.378C501.419 310.31 501.229 310.278 501.038 310.283C500.846 310.289 500.658 310.332 500.483 310.41C500.309 310.489 500.151 310.601 500.02 310.74C499.889 310.879 499.786 311.043 499.718 311.222C499.65 311.401 499.618 311.591 499.623 311.782C499.629 311.974 499.672 312.162 499.75 312.337C499.829 312.511 499.941 312.669 500.08 312.8C503.98 316.46 507.55 320.18 510.84 323.93C506.909 323.166 502.891 322.944 498.9 323.27C498.7 323.283 498.513 323.376 498.381 323.526C498.249 323.677 498.182 323.875 498.195 324.075C498.208 324.275 498.3 324.462 498.451 324.594C498.602 324.726 498.8 324.793 499 324.78C503.472 324.44 507.969 324.777 512.34 325.78C517.122 331.372 521.509 337.29 525.47 343.49C520.27 342.99 507.47 342.15 495.09 344.42C494.899 344.456 494.73 344.566 494.62 344.726C494.511 344.887 494.469 345.084 494.505 345.275C494.541 345.466 494.651 345.635 494.811 345.745C494.972 345.854 495.169 345.896 495.36 345.86C508.6 343.42 522.36 344.6 526.46 345.06C528.9 348.97 531.06 352.82 532.97 356.57L537 356.54Z" fill="#9BE4D0"/>
<path fill-rule="evenodd" clip-rule="evenodd" d="M485.82 51.78H489.82C490.175 51.78 490.516 51.9212 490.768 52.1725C491.019 52.4238 491.16 52.7646 491.16 53.12V57.12C491.16 57.4754 491.019 57.8162 490.768 58.0675C490.516 58.3188 490.175 58.46 489.82 58.46H485.82C485.465 58.46 485.124 58.3188 484.872 58.0675C484.621 57.8162 484.48 57.4754 484.48 57.12V53.12C484.48 52.7646 484.621 52.4238 484.872 52.1725C485.124 51.9212 485.465 51.78 485.82 51.78Z" fill="#86CBEE"/>
<path fill-rule="evenodd" clip-rule="evenodd" d="M499.54 51.78H503.54C503.895 51.78 504.236 51.9212 504.488 52.1725C504.739 52.4238 504.88 52.7646 504.88 53.12V57.12C504.88 57.4754 504.739 57.8162 504.488 58.0675C504.236 58.3188 503.895 58.46 503.54 58.46H499.54C499.185 58.46 498.844 58.3188 498.592 58.0675C498.341 57.8162 498.2 57.4754 498.2 57.12V53.12C498.2 52.7646 498.341 52.4238 498.592 52.1725C498.844 51.9212 499.185 51.78 499.54 51.78Z" fill="#86CBEE"/>
<path fill-rule="evenodd" clip-rule="evenodd" d="M513.25 51.78H517.25C517.426 51.78 517.6 51.8147 517.763 51.882C517.925 51.9493 518.073 52.048 518.198 52.1725C518.322 52.2969 518.421 52.4446 518.488 52.6072C518.555 52.7698 518.59 52.944 518.59 53.12V57.12C518.59 57.296 518.555 57.4702 518.488 57.6328C518.421 57.7954 518.322 57.9431 518.198 58.0675C518.073 58.192 517.925 58.2907 517.763 58.358C517.6 58.4253 517.426 58.46 517.25 58.46H513.25C512.896 58.4574 512.558 58.315 512.309 58.064C512.06 57.813 511.92 57.4737 511.92 57.12V53.12C511.92 52.7663 512.06 52.427 512.309 52.176C512.558 51.925 512.896 51.7826 513.25 51.78Z" fill="#86CBEE"/>
<path fill-rule="evenodd" clip-rule="evenodd" d="M527 51.78H531C531.354 51.7826 531.692 51.925 531.941 52.176C532.19 52.427 532.33 52.7663 532.33 53.12V57.12C532.33 57.4737 532.19 57.813 531.941 58.064C531.692 58.315 531.354 58.4574 531 58.46H527C526.645 58.46 526.304 58.3188 526.052 58.0675C525.801 57.8162 525.66 57.4754 525.66 57.12V53.12C525.66 52.7646 525.801 52.4238 526.052 52.1725C526.304 51.9212 526.645 51.78 527 51.78Z" fill="#86CBEE"/>
<path d="M588.49 45.21C588.511 45.0349 588.595 44.8736 588.727 44.7565C588.859 44.6394 589.029 44.5747 589.205 44.5747C589.381 44.5747 589.551 44.6394 589.683 44.7565C589.815 44.8736 589.899 45.0349 589.92 45.21V48.41C589.899 48.5851 589.815 48.7464 589.683 48.8635C589.551 48.9806 589.381 49.0453 589.205 49.0453C589.029 49.0453 588.859 48.9806 588.727 48.8635C588.595 48.7464 588.511 48.5851 588.49 48.41V45.21ZM583.66 47.81C583.528 47.677 583.454 47.4973 583.454 47.31C583.454 47.1227 583.528 46.943 583.66 46.81C583.725 46.7435 583.803 46.6906 583.889 46.6546C583.975 46.6185 584.067 46.5999 584.16 46.5999C584.253 46.5999 584.345 46.6185 584.431 46.6546C584.517 46.6906 584.595 46.7435 584.66 46.81L586.92 49.07C587.033 49.2061 587.092 49.3797 587.084 49.5568C587.076 49.7338 587.002 49.9015 586.877 50.0268C586.751 50.1521 586.584 50.226 586.407 50.234C586.23 50.242 586.056 50.1835 585.92 50.07L583.66 47.81ZM582.07 53.05C581.97 53.0619 581.869 53.0525 581.774 53.0225C581.678 52.9925 581.59 52.9426 581.515 52.876C581.439 52.8093 581.379 52.7276 581.338 52.6361C581.297 52.5445 581.276 52.4453 581.276 52.345C581.276 52.2447 581.297 52.1455 581.338 52.0539C581.379 51.9624 581.439 51.8807 581.515 51.814C581.59 51.7474 581.678 51.6975 581.774 51.6675C581.869 51.6375 581.97 51.6281 582.07 51.64H585.26C585.433 51.6606 585.592 51.7437 585.707 51.8736C585.822 52.0036 585.886 52.1713 585.886 52.345C585.886 52.5187 585.822 52.6864 585.707 52.8164C585.592 52.9463 585.433 53.0294 585.26 53.05H582.07ZM584.66 57.9C584.597 57.9758 584.519 58.0375 584.43 58.0813C584.342 58.1252 584.245 58.1501 584.147 58.1545C584.048 58.159 583.95 58.1429 583.858 58.1072C583.766 58.0715 583.682 58.0171 583.613 57.9473C583.543 57.8776 583.488 57.7941 583.453 57.7021C583.417 57.6101 583.401 57.5118 583.405 57.4132C583.41 57.3147 583.435 57.2182 583.479 57.1298C583.522 57.0414 583.584 56.9632 583.66 56.9L585.91 54.64C585.973 54.5642 586.051 54.5025 586.14 54.4587C586.228 54.4148 586.325 54.3899 586.423 54.3854C586.522 54.381 586.62 54.3971 586.712 54.4328C586.804 54.4685 586.888 54.5229 586.957 54.5927C587.027 54.6624 587.082 54.7459 587.117 54.8379C587.153 54.9298 587.169 55.0282 587.165 55.1268C587.16 55.2253 587.135 55.3218 587.091 55.4102C587.047 55.4986 586.986 55.5768 586.91 55.64L584.66 57.9ZM589.92 59.49C589.899 59.6651 589.815 59.8264 589.683 59.9435C589.551 60.0606 589.381 60.1253 589.205 60.1253C589.029 60.1253 588.859 60.0606 588.727 59.9435C588.595 59.8264 588.511 59.6651 588.49 59.49V56.29C588.511 56.1149 588.595 55.9536 588.727 55.8365C588.859 55.7194 589.029 55.6547 589.205 55.6547C589.381 55.6547 589.551 55.7194 589.683 55.8365C589.815 55.9536 589.899 56.1149 589.92 56.29V59.49ZM594.75 56.89C594.877 57.0254 594.948 57.2042 594.948 57.39C594.948 57.5758 594.877 57.7546 594.75 57.89C594.616 58.0195 594.437 58.0919 594.25 58.0919C594.063 58.0919 593.884 58.0195 593.75 57.89L591.49 55.63C591.414 55.5668 591.352 55.4886 591.309 55.4002C591.265 55.3118 591.24 55.2153 591.235 55.1168C591.231 55.0182 591.247 54.9199 591.283 54.8279C591.318 54.7359 591.373 54.6524 591.443 54.5827C591.512 54.5129 591.596 54.4585 591.688 54.4228C591.78 54.3871 591.878 54.371 591.977 54.3754C592.075 54.3799 592.172 54.4048 592.26 54.4487C592.349 54.4925 592.427 54.5542 592.49 54.63L594.75 56.89ZM596.34 51.64C596.44 51.6281 596.541 51.6375 596.636 51.6675C596.732 51.6975 596.82 51.7474 596.896 51.814C596.971 51.8807 597.031 51.9624 597.072 52.0539C597.113 52.1455 597.134 52.2447 597.134 52.345C597.134 52.4453 597.113 52.5445 597.072 52.6361C597.031 52.7276 596.971 52.8093 596.896 52.876C596.82 52.9426 596.732 52.9925 596.636 53.0225C596.541 53.0525 596.44 53.0619 596.34 53.05H593.14C592.968 53.0294 592.809 52.9463 592.693 52.8164C592.578 52.6864 592.514 52.5187 592.514 52.345C592.514 52.1713 592.578 52.0036 592.693 51.8736C592.809 51.7437 592.968 51.6606 593.14 51.64H596.34ZM593.75 46.78C593.815 46.7135 593.893 46.6606 593.979 46.6246C594.065 46.5885 594.157 46.5699 594.25 46.5699C594.343 46.5699 594.435 46.5885 594.521 46.6246C594.607 46.6606 594.685 46.7135 594.75 46.78C594.877 46.9154 594.948 47.0942 594.948 47.28C594.948 47.4658 594.877 47.6446 594.75 47.78L592.49 50.04C592.354 50.1535 592.18 50.212 592.003 50.204C591.826 50.196 591.659 50.1221 591.533 49.9968C591.408 49.8715 591.334 49.7038 591.326 49.5268C591.318 49.3497 591.376 49.1761 591.49 49.04L593.75 46.78Z" fill="#52A5CF"/>
<path d="M36.52 171.36C36.52 171.172 36.5948 170.991 36.728 170.858C36.8611 170.725 37.0417 170.65 37.23 170.65C37.4183 170.65 37.5989 170.725 37.732 170.858C37.8652 170.991 37.94 171.172 37.94 171.36V174.55C37.94 174.738 37.8652 174.919 37.732 175.052C37.5989 175.185 37.4183 175.26 37.23 175.26C37.0417 175.26 36.8611 175.185 36.728 175.052C36.5948 174.919 36.52 174.738 36.52 174.55V171.36ZM31.69 173.95C31.6235 173.885 31.5706 173.807 31.5346 173.721C31.4985 173.635 31.4799 173.543 31.4799 173.45C31.4799 173.357 31.4985 173.265 31.5346 173.179C31.5706 173.093 31.6235 173.015 31.69 172.95C31.8242 172.82 32.0035 172.748 32.19 172.748C32.3765 172.748 32.5558 172.82 32.69 172.95L34.94 175.21C35.0078 175.274 35.0617 175.352 35.0986 175.438C35.1355 175.524 35.1545 175.616 35.1545 175.71C35.1545 175.804 35.1355 175.896 35.0986 175.982C35.0617 176.068 35.0078 176.146 34.94 176.21C34.807 176.342 34.6273 176.416 34.44 176.416C34.2527 176.416 34.073 176.342 33.94 176.21L31.69 173.95ZM30.1 179.2C29.9117 179.2 29.7311 179.125 29.598 178.992C29.4648 178.859 29.39 178.678 29.39 178.49C29.39 178.302 29.4648 178.121 29.598 177.988C29.7311 177.855 29.9117 177.78 30.1 177.78H33.29C33.4783 177.78 33.6589 177.855 33.792 177.988C33.9252 178.121 34 178.302 34 178.49C34 178.678 33.9252 178.859 33.792 178.992C33.6589 179.125 33.4783 179.2 33.29 179.2H30.1ZM32.69 184.04C32.5558 184.17 32.3765 184.242 32.19 184.242C32.0035 184.242 31.8242 184.17 31.69 184.04C31.6235 183.975 31.5706 183.897 31.5346 183.811C31.4985 183.725 31.4799 183.633 31.4799 183.54C31.4799 183.447 31.4985 183.355 31.5346 183.269C31.5706 183.183 31.6235 183.105 31.69 183.04L34 180.78C34.1326 180.647 34.3125 180.573 34.5 180.573C34.6875 180.573 34.8674 180.647 35 180.78C35.1326 180.913 35.2071 181.092 35.2071 181.28C35.2071 181.468 35.1326 181.647 35 181.78L32.69 184.04ZM37.94 185.63C37.94 185.818 37.8652 185.999 37.732 186.132C37.5989 186.265 37.4183 186.34 37.23 186.34C37.0417 186.34 36.8611 186.265 36.728 186.132C36.5948 185.999 36.52 185.818 36.52 185.63V182.43C36.52 182.242 36.5948 182.061 36.728 181.928C36.8611 181.795 37.0417 181.72 37.23 181.72C37.4183 181.72 37.5989 181.795 37.732 181.928C37.8652 182.061 37.94 182.242 37.94 182.43V185.63ZM42.78 183.03C42.8558 183.093 42.9175 183.171 42.9613 183.26C43.0052 183.348 43.0301 183.445 43.0346 183.543C43.039 183.642 43.0229 183.74 42.9872 183.832C42.9515 183.924 42.8971 184.008 42.8273 184.077C42.7576 184.147 42.6741 184.202 42.5821 184.237C42.4902 184.273 42.3918 184.289 42.2932 184.285C42.1947 184.28 42.0982 184.255 42.0098 184.211C41.9214 184.168 41.8432 184.106 41.78 184.03L39.52 181.78C39.4065 181.644 39.348 181.47 39.356 181.293C39.364 181.116 39.4379 180.949 39.5632 180.823C39.6885 180.698 39.8562 180.624 40.0332 180.616C40.2103 180.608 40.3839 180.666 40.52 180.78L42.78 183.03ZM44.37 177.78C44.5583 177.78 44.7389 177.855 44.872 177.988C45.0052 178.121 45.08 178.302 45.08 178.49C45.08 178.678 45.0052 178.859 44.872 178.992C44.7389 179.125 44.5583 179.2 44.37 179.2H41.18C41.0868 179.2 40.9944 179.182 40.9083 179.146C40.8222 179.11 40.7439 179.058 40.678 178.992C40.612 178.926 40.5597 178.848 40.524 178.762C40.4884 178.676 40.47 178.583 40.47 178.49C40.47 178.397 40.4884 178.304 40.524 178.218C40.5597 178.132 40.612 178.054 40.678 177.988C40.7439 177.922 40.8222 177.87 40.9083 177.834C40.9944 177.798 41.0868 177.78 41.18 177.78H44.37ZM41.78 172.94C41.9161 172.827 42.0897 172.768 42.2668 172.776C42.4438 172.784 42.6115 172.858 42.7368 172.983C42.8621 173.109 42.936 173.276 42.944 173.453C42.952 173.63 42.8935 173.804 42.78 173.94L40.52 176.2C40.4568 176.276 40.3786 176.338 40.2902 176.381C40.2018 176.425 40.1053 176.45 40.0068 176.455C39.9082 176.459 39.8099 176.443 39.7179 176.407C39.6259 176.372 39.5424 176.317 39.4727 176.247C39.4029 176.178 39.3485 176.094 39.3128 176.002C39.2771 175.91 39.261 175.812 39.2654 175.713C39.2699 175.615 39.2948 175.518 39.3387 175.43C39.3825 175.341 39.4442 175.263 39.52 175.2L41.78 172.94Z" fill="#52A5CF"/>
<path fill-rule="evenodd" clip-rule="evenodd" d="M8 357.26H630C632.122 357.26 634.157 358.103 635.657 359.603C637.157 361.103 638 363.138 638 365.26C638 367.382 637.157 369.417 635.657 370.917C634.157 372.417 632.122 373.26 630 373.26H603C601.819 373.263 600.687 373.734 599.853 374.57C599.019 375.406 598.55 376.539 598.55 377.72C598.555 378.899 599.026 380.027 599.859 380.861C600.693 381.694 601.821 382.165 603 382.17H612.89C614.366 382.173 615.782 382.76 616.826 383.804C617.87 384.848 618.457 386.264 618.46 387.74C618.455 389.214 617.866 390.625 616.822 391.666C615.778 392.706 614.364 393.29 612.89 393.29H26C24.5365 393.285 23.1339 392.704 22.0954 391.673C21.0568 390.642 20.4658 389.243 20.45 387.78C20.45 386.305 21.0337 384.891 22.0737 383.845C23.1137 382.799 24.5253 382.208 26 382.2H33.8C34.9803 382.197 36.1117 381.728 36.9473 380.894C37.7828 380.061 38.2547 378.93 38.26 377.75C38.2574 376.568 37.7866 375.435 36.9508 374.599C36.1149 373.763 34.9821 373.293 33.8 373.29H8C5.87827 373.29 3.84344 372.447 2.34315 370.947C0.842856 369.447 0 367.412 0 365.29C0 363.168 0.842856 361.133 2.34315 359.633C3.84344 358.133 5.87827 357.29 8 357.29V357.26ZM12.17 393.32C10.7546 393.317 9.39784 392.754 8.39697 391.753C7.3961 390.752 6.83264 389.395 6.83 387.98V387.54C6.83527 386.125 7.39957 384.77 8.39987 383.77C9.40018 382.77 10.7554 382.205 12.17 382.2C13.5872 382.2 14.9465 382.762 15.9495 383.763C16.9525 384.765 17.5173 386.123 17.52 387.54V387.98C17.5173 389.397 16.9525 390.755 15.9495 391.757C14.9465 392.758 13.5872 393.32 12.17 393.32Z" fill="#179CD8"/>
</svg>
